G04 #@! TF.GenerationSoftware,KiCad,Pcbnew,(5.1.4)-1*
G04 #@! TF.CreationDate,2019-12-24T11:40:01+01:00*
G04 #@! TF.ProjectId,Dator,4461746f-722e-46b6-9963-61645f706362,rev?*
G04 #@! TF.SameCoordinates,Original*
G04 #@! TF.FileFunction,Legend,Top*
G04 #@! TF.FilePolarity,Positive*
%FSLAX46Y46*%
G04 Gerber Fmt 4.6, Leading zero omitted, Abs format (unit mm)*
G04 Created by KiCad (PCBNEW (5.1.4)-1) date 2019-12-24 11:40:01*
%MOMM*%
%LPD*%
G04 APERTURE LIST*
%ADD10C,0.150000*%
%ADD11C,0.120000*%
G04 APERTURE END LIST*
D10*
X93337285Y-109575000D02*
X93813476Y-109575000D01*
X93575380Y-110942380D02*
X93575380Y-109942380D01*
X93813476Y-109575000D02*
X94861095Y-109575000D01*
X94242047Y-109942380D02*
X94432523Y-109942380D01*
X94527761Y-109990000D01*
X94623000Y-110085238D01*
X94670619Y-110275714D01*
X94670619Y-110609047D01*
X94623000Y-110799523D01*
X94527761Y-110894761D01*
X94432523Y-110942380D01*
X94242047Y-110942380D01*
X94146809Y-110894761D01*
X94051571Y-110799523D01*
X94003952Y-110609047D01*
X94003952Y-110275714D01*
X94051571Y-110085238D01*
X94146809Y-109990000D01*
X94242047Y-109942380D01*
X94861095Y-109575000D02*
X95861095Y-109575000D01*
X95670619Y-110942380D02*
X95337285Y-110466190D01*
X95099190Y-110942380D02*
X95099190Y-109942380D01*
X95480142Y-109942380D01*
X95575380Y-109990000D01*
X95623000Y-110037619D01*
X95670619Y-110132857D01*
X95670619Y-110275714D01*
X95623000Y-110370952D01*
X95575380Y-110418571D01*
X95480142Y-110466190D01*
X95099190Y-110466190D01*
X95861095Y-109575000D02*
X96908714Y-109575000D01*
X96765857Y-111037619D02*
X96670619Y-110990000D01*
X96575380Y-110894761D01*
X96432523Y-110751904D01*
X96337285Y-110704285D01*
X96242047Y-110704285D01*
X96289666Y-110942380D02*
X96194428Y-110894761D01*
X96099190Y-110799523D01*
X96051571Y-110609047D01*
X96051571Y-110275714D01*
X96099190Y-110085238D01*
X96194428Y-109990000D01*
X96289666Y-109942380D01*
X96480142Y-109942380D01*
X96575380Y-109990000D01*
X96670619Y-110085238D01*
X96718238Y-110275714D01*
X96718238Y-110609047D01*
X96670619Y-110799523D01*
X96575380Y-110894761D01*
X96480142Y-110942380D01*
X96289666Y-110942380D01*
X100822523Y-71699380D02*
X100822523Y-70699380D01*
X101060619Y-70699380D01*
X101203476Y-70747000D01*
X101298714Y-70842238D01*
X101346333Y-70937476D01*
X101393952Y-71127952D01*
X101393952Y-71270809D01*
X101346333Y-71461285D01*
X101298714Y-71556523D01*
X101203476Y-71651761D01*
X101060619Y-71699380D01*
X100822523Y-71699380D01*
X102251095Y-71699380D02*
X102251095Y-71175571D01*
X102203476Y-71080333D01*
X102108238Y-71032714D01*
X101917761Y-71032714D01*
X101822523Y-71080333D01*
X102251095Y-71651761D02*
X102155857Y-71699380D01*
X101917761Y-71699380D01*
X101822523Y-71651761D01*
X101774904Y-71556523D01*
X101774904Y-71461285D01*
X101822523Y-71366047D01*
X101917761Y-71318428D01*
X102155857Y-71318428D01*
X102251095Y-71270809D01*
X102584428Y-71032714D02*
X102965380Y-71032714D01*
X102727285Y-70699380D02*
X102727285Y-71556523D01*
X102774904Y-71651761D01*
X102870142Y-71699380D01*
X102965380Y-71699380D01*
X103727285Y-71699380D02*
X103727285Y-71175571D01*
X103679666Y-71080333D01*
X103584428Y-71032714D01*
X103393952Y-71032714D01*
X103298714Y-71080333D01*
X103727285Y-71651761D02*
X103632047Y-71699380D01*
X103393952Y-71699380D01*
X103298714Y-71651761D01*
X103251095Y-71556523D01*
X103251095Y-71461285D01*
X103298714Y-71366047D01*
X103393952Y-71318428D01*
X103632047Y-71318428D01*
X103727285Y-71270809D01*
X105298714Y-71175571D02*
X105441571Y-71223190D01*
X105489190Y-71270809D01*
X105536809Y-71366047D01*
X105536809Y-71508904D01*
X105489190Y-71604142D01*
X105441571Y-71651761D01*
X105346333Y-71699380D01*
X104965380Y-71699380D01*
X104965380Y-70699380D01*
X105298714Y-70699380D01*
X105393952Y-70747000D01*
X105441571Y-70794619D01*
X105489190Y-70889857D01*
X105489190Y-70985095D01*
X105441571Y-71080333D01*
X105393952Y-71127952D01*
X105298714Y-71175571D01*
X104965380Y-71175571D01*
X106393952Y-71032714D02*
X106393952Y-71699380D01*
X105965380Y-71032714D02*
X105965380Y-71556523D01*
X106013000Y-71651761D01*
X106108238Y-71699380D01*
X106251095Y-71699380D01*
X106346333Y-71651761D01*
X106393952Y-71604142D01*
X106822523Y-71651761D02*
X106917761Y-71699380D01*
X107108238Y-71699380D01*
X107203476Y-71651761D01*
X107251095Y-71556523D01*
X107251095Y-71508904D01*
X107203476Y-71413666D01*
X107108238Y-71366047D01*
X106965380Y-71366047D01*
X106870142Y-71318428D01*
X106822523Y-71223190D01*
X106822523Y-71175571D01*
X106870142Y-71080333D01*
X106965380Y-71032714D01*
X107108238Y-71032714D01*
X107203476Y-71080333D01*
X132794928Y-71604166D02*
X133271119Y-71604166D01*
X132699690Y-71889880D02*
X133033023Y-70889880D01*
X133366357Y-71889880D01*
X134128261Y-71889880D02*
X134128261Y-70889880D01*
X134128261Y-71842261D02*
X134033023Y-71889880D01*
X133842547Y-71889880D01*
X133747309Y-71842261D01*
X133699690Y-71794642D01*
X133652071Y-71699404D01*
X133652071Y-71413690D01*
X133699690Y-71318452D01*
X133747309Y-71270833D01*
X133842547Y-71223214D01*
X134033023Y-71223214D01*
X134128261Y-71270833D01*
X135033023Y-71889880D02*
X135033023Y-70889880D01*
X135033023Y-71842261D02*
X134937785Y-71889880D01*
X134747309Y-71889880D01*
X134652071Y-71842261D01*
X134604452Y-71794642D01*
X134556833Y-71699404D01*
X134556833Y-71413690D01*
X134604452Y-71318452D01*
X134652071Y-71270833D01*
X134747309Y-71223214D01*
X134937785Y-71223214D01*
X135033023Y-71270833D01*
X135509214Y-71889880D02*
X135509214Y-71223214D01*
X135509214Y-71413690D02*
X135556833Y-71318452D01*
X135604452Y-71270833D01*
X135699690Y-71223214D01*
X135794928Y-71223214D01*
X136509214Y-71842261D02*
X136413976Y-71889880D01*
X136223500Y-71889880D01*
X136128261Y-71842261D01*
X136080642Y-71747023D01*
X136080642Y-71366071D01*
X136128261Y-71270833D01*
X136223500Y-71223214D01*
X136413976Y-71223214D01*
X136509214Y-71270833D01*
X136556833Y-71366071D01*
X136556833Y-71461309D01*
X136080642Y-71556547D01*
X136937785Y-71842261D02*
X137033023Y-71889880D01*
X137223500Y-71889880D01*
X137318738Y-71842261D01*
X137366357Y-71747023D01*
X137366357Y-71699404D01*
X137318738Y-71604166D01*
X137223500Y-71556547D01*
X137080642Y-71556547D01*
X136985404Y-71508928D01*
X136937785Y-71413690D01*
X136937785Y-71366071D01*
X136985404Y-71270833D01*
X137080642Y-71223214D01*
X137223500Y-71223214D01*
X137318738Y-71270833D01*
X137747309Y-71842261D02*
X137842547Y-71889880D01*
X138033023Y-71889880D01*
X138128261Y-71842261D01*
X138175880Y-71747023D01*
X138175880Y-71699404D01*
X138128261Y-71604166D01*
X138033023Y-71556547D01*
X137890166Y-71556547D01*
X137794928Y-71508928D01*
X137747309Y-71413690D01*
X137747309Y-71366071D01*
X137794928Y-71270833D01*
X137890166Y-71223214D01*
X138033023Y-71223214D01*
X138128261Y-71270833D01*
X139699690Y-71366071D02*
X139842547Y-71413690D01*
X139890166Y-71461309D01*
X139937785Y-71556547D01*
X139937785Y-71699404D01*
X139890166Y-71794642D01*
X139842547Y-71842261D01*
X139747309Y-71889880D01*
X139366357Y-71889880D01*
X139366357Y-70889880D01*
X139699690Y-70889880D01*
X139794928Y-70937500D01*
X139842547Y-70985119D01*
X139890166Y-71080357D01*
X139890166Y-71175595D01*
X139842547Y-71270833D01*
X139794928Y-71318452D01*
X139699690Y-71366071D01*
X139366357Y-71366071D01*
X140794928Y-71223214D02*
X140794928Y-71889880D01*
X140366357Y-71223214D02*
X140366357Y-71747023D01*
X140413976Y-71842261D01*
X140509214Y-71889880D01*
X140652071Y-71889880D01*
X140747309Y-71842261D01*
X140794928Y-71794642D01*
X141223500Y-71842261D02*
X141318738Y-71889880D01*
X141509214Y-71889880D01*
X141604452Y-71842261D01*
X141652071Y-71747023D01*
X141652071Y-71699404D01*
X141604452Y-71604166D01*
X141509214Y-71556547D01*
X141366357Y-71556547D01*
X141271119Y-71508928D01*
X141223500Y-71413690D01*
X141223500Y-71366071D01*
X141271119Y-71270833D01*
X141366357Y-71223214D01*
X141509214Y-71223214D01*
X141604452Y-71270833D01*
X158623023Y-72016880D02*
X158051595Y-72016880D01*
X158337309Y-72016880D02*
X158337309Y-71016880D01*
X158242071Y-71159738D01*
X158146833Y-71254976D01*
X158051595Y-71302595D01*
X159527785Y-71016880D02*
X159051595Y-71016880D01*
X159003976Y-71493071D01*
X159051595Y-71445452D01*
X159146833Y-71397833D01*
X159384928Y-71397833D01*
X159480166Y-71445452D01*
X159527785Y-71493071D01*
X159575404Y-71588309D01*
X159575404Y-71826404D01*
X159527785Y-71921642D01*
X159480166Y-71969261D01*
X159384928Y-72016880D01*
X159146833Y-72016880D01*
X159051595Y-71969261D01*
X159003976Y-71921642D01*
X120602380Y-70953380D02*
X120697619Y-70953380D01*
X120792857Y-71001000D01*
X120840476Y-71048619D01*
X120888095Y-71143857D01*
X120935714Y-71334333D01*
X120935714Y-71572428D01*
X120888095Y-71762904D01*
X120840476Y-71858142D01*
X120792857Y-71905761D01*
X120697619Y-71953380D01*
X120602380Y-71953380D01*
X120507142Y-71905761D01*
X120459523Y-71858142D01*
X120411904Y-71762904D01*
X120364285Y-71572428D01*
X120364285Y-71334333D01*
X120411904Y-71143857D01*
X120459523Y-71048619D01*
X120507142Y-71001000D01*
X120602380Y-70953380D01*
X112696666Y-70826380D02*
X113363333Y-70826380D01*
X112934761Y-71826380D01*
X95138880Y-70635880D02*
X95234119Y-70635880D01*
X95329357Y-70683500D01*
X95376976Y-70731119D01*
X95424595Y-70826357D01*
X95472214Y-71016833D01*
X95472214Y-71254928D01*
X95424595Y-71445404D01*
X95376976Y-71540642D01*
X95329357Y-71588261D01*
X95234119Y-71635880D01*
X95138880Y-71635880D01*
X95043642Y-71588261D01*
X94996023Y-71540642D01*
X94948404Y-71445404D01*
X94900785Y-71254928D01*
X94900785Y-71016833D01*
X94948404Y-70826357D01*
X94996023Y-70731119D01*
X95043642Y-70683500D01*
X95138880Y-70635880D01*
X93623095Y-76555000D02*
X94623095Y-76555000D01*
X94432619Y-77922380D02*
X94099285Y-77446190D01*
X93861190Y-77922380D02*
X93861190Y-76922380D01*
X94242142Y-76922380D01*
X94337380Y-76970000D01*
X94385000Y-77017619D01*
X94432619Y-77112857D01*
X94432619Y-77255714D01*
X94385000Y-77350952D01*
X94337380Y-77398571D01*
X94242142Y-77446190D01*
X93861190Y-77446190D01*
X94623095Y-76555000D02*
X95527857Y-76555000D01*
X94861190Y-77398571D02*
X95194523Y-77398571D01*
X95337380Y-77922380D02*
X94861190Y-77922380D01*
X94861190Y-76922380D01*
X95337380Y-76922380D01*
X95527857Y-76555000D02*
X96480238Y-76555000D01*
X95718333Y-77874761D02*
X95861190Y-77922380D01*
X96099285Y-77922380D01*
X96194523Y-77874761D01*
X96242142Y-77827142D01*
X96289761Y-77731904D01*
X96289761Y-77636666D01*
X96242142Y-77541428D01*
X96194523Y-77493809D01*
X96099285Y-77446190D01*
X95908809Y-77398571D01*
X95813571Y-77350952D01*
X95765952Y-77303333D01*
X95718333Y-77208095D01*
X95718333Y-77112857D01*
X95765952Y-77017619D01*
X95813571Y-76970000D01*
X95908809Y-76922380D01*
X96146904Y-76922380D01*
X96289761Y-76970000D01*
X96480238Y-76555000D02*
X97385000Y-76555000D01*
X96718333Y-77398571D02*
X97051666Y-77398571D01*
X97194523Y-77922380D02*
X96718333Y-77922380D01*
X96718333Y-76922380D01*
X97194523Y-76922380D01*
X97385000Y-76555000D02*
X98146904Y-76555000D01*
X97480238Y-76922380D02*
X98051666Y-76922380D01*
X97765952Y-77922380D02*
X97765952Y-76922380D01*
X94488095Y-87130000D02*
X94392857Y-87082380D01*
X94250000Y-87082380D01*
X94107142Y-87130000D01*
X94011904Y-87225238D01*
X93964285Y-87320476D01*
X93916666Y-87510952D01*
X93916666Y-87653809D01*
X93964285Y-87844285D01*
X94011904Y-87939523D01*
X94107142Y-88034761D01*
X94250000Y-88082380D01*
X94345238Y-88082380D01*
X94488095Y-88034761D01*
X94535714Y-87987142D01*
X94535714Y-87653809D01*
X94345238Y-87653809D01*
X94964285Y-88082380D02*
X94964285Y-87082380D01*
X95535714Y-88082380D01*
X95535714Y-87082380D01*
X96011904Y-88082380D02*
X96011904Y-87082380D01*
X96250000Y-87082380D01*
X96392857Y-87130000D01*
X96488095Y-87225238D01*
X96535714Y-87320476D01*
X96583333Y-87510952D01*
X96583333Y-87653809D01*
X96535714Y-87844285D01*
X96488095Y-87939523D01*
X96392857Y-88034761D01*
X96250000Y-88082380D01*
X96011904Y-88082380D01*
X93511904Y-81635000D02*
X94559523Y-81635000D01*
X93750000Y-83002380D02*
X93750000Y-82002380D01*
X93750000Y-82478571D02*
X94321428Y-82478571D01*
X94321428Y-83002380D02*
X94321428Y-82002380D01*
X94559523Y-81635000D02*
X95416666Y-81635000D01*
X94750000Y-82716666D02*
X95226190Y-82716666D01*
X94654761Y-83002380D02*
X94988095Y-82002380D01*
X95321428Y-83002380D01*
X95416666Y-81635000D02*
X96226190Y-81635000D01*
X96130952Y-83002380D02*
X95654761Y-83002380D01*
X95654761Y-82002380D01*
X96226190Y-81635000D02*
X96988095Y-81635000D01*
X96321428Y-82002380D02*
X96892857Y-82002380D01*
X96607142Y-83002380D02*
X96607142Y-82002380D01*
X94297857Y-80367142D02*
X94250238Y-80414761D01*
X94107380Y-80462380D01*
X94012142Y-80462380D01*
X93869285Y-80414761D01*
X93774047Y-80319523D01*
X93726428Y-80224285D01*
X93678809Y-80033809D01*
X93678809Y-79890952D01*
X93726428Y-79700476D01*
X93774047Y-79605238D01*
X93869285Y-79510000D01*
X94012142Y-79462380D01*
X94107380Y-79462380D01*
X94250238Y-79510000D01*
X94297857Y-79557619D01*
X95202619Y-80462380D02*
X94726428Y-80462380D01*
X94726428Y-79462380D01*
X95535952Y-80462380D02*
X95535952Y-79462380D01*
X96107380Y-80462380D02*
X95678809Y-79890952D01*
X96107380Y-79462380D02*
X95535952Y-80033809D01*
X97297857Y-80462380D02*
X97297857Y-79795714D01*
X97297857Y-79462380D02*
X97250238Y-79510000D01*
X97297857Y-79557619D01*
X97345476Y-79510000D01*
X97297857Y-79462380D01*
X97297857Y-79557619D01*
X97774047Y-79795714D02*
X97774047Y-80462380D01*
X97774047Y-79890952D02*
X97821666Y-79843333D01*
X97916904Y-79795714D01*
X98059761Y-79795714D01*
X98155000Y-79843333D01*
X98202619Y-79938571D01*
X98202619Y-80462380D01*
X98678809Y-79795714D02*
X98678809Y-80795714D01*
X98678809Y-79843333D02*
X98774047Y-79795714D01*
X98964523Y-79795714D01*
X99059761Y-79843333D01*
X99107380Y-79890952D01*
X99155000Y-79986190D01*
X99155000Y-80271904D01*
X99107380Y-80367142D01*
X99059761Y-80414761D01*
X98964523Y-80462380D01*
X98774047Y-80462380D01*
X98678809Y-80414761D01*
X100012142Y-79795714D02*
X100012142Y-80462380D01*
X99583571Y-79795714D02*
X99583571Y-80319523D01*
X99631190Y-80414761D01*
X99726428Y-80462380D01*
X99869285Y-80462380D01*
X99964523Y-80414761D01*
X100012142Y-80367142D01*
X100345476Y-79795714D02*
X100726428Y-79795714D01*
X100488333Y-79462380D02*
X100488333Y-80319523D01*
X100535952Y-80414761D01*
X100631190Y-80462380D01*
X100726428Y-80462380D01*
X93964285Y-85161428D02*
X94726190Y-85161428D01*
X94345238Y-85542380D02*
X94345238Y-84780476D01*
X95678571Y-84542380D02*
X95202380Y-84542380D01*
X95154761Y-85018571D01*
X95202380Y-84970952D01*
X95297619Y-84923333D01*
X95535714Y-84923333D01*
X95630952Y-84970952D01*
X95678571Y-85018571D01*
X95726190Y-85113809D01*
X95726190Y-85351904D01*
X95678571Y-85447142D01*
X95630952Y-85494761D01*
X95535714Y-85542380D01*
X95297619Y-85542380D01*
X95202380Y-85494761D01*
X95154761Y-85447142D01*
X96011904Y-84542380D02*
X96345238Y-85542380D01*
X96678571Y-84542380D01*
X93456285Y-105481428D02*
X94218190Y-105481428D01*
X93837238Y-105862380D02*
X93837238Y-105100476D01*
X95170571Y-104862380D02*
X94694380Y-104862380D01*
X94646761Y-105338571D01*
X94694380Y-105290952D01*
X94789619Y-105243333D01*
X95027714Y-105243333D01*
X95122952Y-105290952D01*
X95170571Y-105338571D01*
X95218190Y-105433809D01*
X95218190Y-105671904D01*
X95170571Y-105767142D01*
X95122952Y-105814761D01*
X95027714Y-105862380D01*
X94789619Y-105862380D01*
X94694380Y-105814761D01*
X94646761Y-105767142D01*
X95503904Y-104862380D02*
X95837238Y-105862380D01*
X96170571Y-104862380D01*
X92980190Y-102209000D02*
X93980190Y-102209000D01*
X93551619Y-103052571D02*
X93694476Y-103100190D01*
X93742095Y-103147809D01*
X93789714Y-103243047D01*
X93789714Y-103385904D01*
X93742095Y-103481142D01*
X93694476Y-103528761D01*
X93599238Y-103576380D01*
X93218285Y-103576380D01*
X93218285Y-102576380D01*
X93551619Y-102576380D01*
X93646857Y-102624000D01*
X93694476Y-102671619D01*
X93742095Y-102766857D01*
X93742095Y-102862095D01*
X93694476Y-102957333D01*
X93646857Y-103004952D01*
X93551619Y-103052571D01*
X93218285Y-103052571D01*
X93980190Y-102209000D02*
X95027809Y-102209000D01*
X94218285Y-102576380D02*
X94218285Y-103385904D01*
X94265904Y-103481142D01*
X94313523Y-103528761D01*
X94408761Y-103576380D01*
X94599238Y-103576380D01*
X94694476Y-103528761D01*
X94742095Y-103481142D01*
X94789714Y-103385904D01*
X94789714Y-102576380D01*
X95027809Y-102209000D02*
X95980190Y-102209000D01*
X95218285Y-103528761D02*
X95361142Y-103576380D01*
X95599238Y-103576380D01*
X95694476Y-103528761D01*
X95742095Y-103481142D01*
X95789714Y-103385904D01*
X95789714Y-103290666D01*
X95742095Y-103195428D01*
X95694476Y-103147809D01*
X95599238Y-103100190D01*
X95408761Y-103052571D01*
X95313523Y-103004952D01*
X95265904Y-102957333D01*
X95218285Y-102862095D01*
X95218285Y-102766857D01*
X95265904Y-102671619D01*
X95313523Y-102624000D01*
X95408761Y-102576380D01*
X95646857Y-102576380D01*
X95789714Y-102624000D01*
X95980190Y-102209000D02*
X96980190Y-102209000D01*
X96789714Y-103576380D02*
X96456380Y-103100190D01*
X96218285Y-103576380D02*
X96218285Y-102576380D01*
X96599238Y-102576380D01*
X96694476Y-102624000D01*
X96742095Y-102671619D01*
X96789714Y-102766857D01*
X96789714Y-102909714D01*
X96742095Y-103004952D01*
X96694476Y-103052571D01*
X96599238Y-103100190D01*
X96218285Y-103100190D01*
X96980190Y-102209000D02*
X98027809Y-102209000D01*
X97884952Y-103671619D02*
X97789714Y-103624000D01*
X97694476Y-103528761D01*
X97551619Y-103385904D01*
X97456380Y-103338285D01*
X97361142Y-103338285D01*
X97408761Y-103576380D02*
X97313523Y-103528761D01*
X97218285Y-103433523D01*
X97170666Y-103243047D01*
X97170666Y-102909714D01*
X97218285Y-102719238D01*
X97313523Y-102624000D01*
X97408761Y-102576380D01*
X97599238Y-102576380D01*
X97694476Y-102624000D01*
X97789714Y-102719238D01*
X97837333Y-102909714D01*
X97837333Y-103243047D01*
X97789714Y-103433523D01*
X97694476Y-103528761D01*
X97599238Y-103576380D01*
X97408761Y-103576380D01*
X93067428Y-99669000D02*
X94067428Y-99669000D01*
X93638857Y-100512571D02*
X93781714Y-100560190D01*
X93829333Y-100607809D01*
X93876952Y-100703047D01*
X93876952Y-100845904D01*
X93829333Y-100941142D01*
X93781714Y-100988761D01*
X93686476Y-101036380D01*
X93305523Y-101036380D01*
X93305523Y-100036380D01*
X93638857Y-100036380D01*
X93734095Y-100084000D01*
X93781714Y-100131619D01*
X93829333Y-100226857D01*
X93829333Y-100322095D01*
X93781714Y-100417333D01*
X93734095Y-100464952D01*
X93638857Y-100512571D01*
X93305523Y-100512571D01*
X94067428Y-99669000D02*
X94924571Y-99669000D01*
X94257904Y-100750666D02*
X94734095Y-100750666D01*
X94162666Y-101036380D02*
X94496000Y-100036380D01*
X94829333Y-101036380D01*
X94924571Y-99669000D02*
X95924571Y-99669000D01*
X95734095Y-100941142D02*
X95686476Y-100988761D01*
X95543619Y-101036380D01*
X95448380Y-101036380D01*
X95305523Y-100988761D01*
X95210285Y-100893523D01*
X95162666Y-100798285D01*
X95115047Y-100607809D01*
X95115047Y-100464952D01*
X95162666Y-100274476D01*
X95210285Y-100179238D01*
X95305523Y-100084000D01*
X95448380Y-100036380D01*
X95543619Y-100036380D01*
X95686476Y-100084000D01*
X95734095Y-100131619D01*
X95924571Y-99669000D02*
X96924571Y-99669000D01*
X96162666Y-101036380D02*
X96162666Y-100036380D01*
X96734095Y-101036380D02*
X96305523Y-100464952D01*
X96734095Y-100036380D02*
X96162666Y-100607809D01*
X93408666Y-97129000D02*
X94456285Y-97129000D01*
X93646761Y-98496380D02*
X93646761Y-97496380D01*
X94218190Y-98496380D01*
X94218190Y-97496380D01*
X94456285Y-97129000D02*
X95599142Y-97129000D01*
X94694380Y-98496380D02*
X94694380Y-97496380D01*
X95027714Y-98210666D01*
X95361047Y-97496380D01*
X95361047Y-98496380D01*
X95599142Y-97129000D02*
X96075333Y-97129000D01*
X95837238Y-98496380D02*
X95837238Y-97496380D01*
X93456285Y-95067428D02*
X94218190Y-95067428D01*
X93837238Y-95448380D02*
X93837238Y-94686476D01*
X95170571Y-94448380D02*
X94694380Y-94448380D01*
X94646761Y-94924571D01*
X94694380Y-94876952D01*
X94789619Y-94829333D01*
X95027714Y-94829333D01*
X95122952Y-94876952D01*
X95170571Y-94924571D01*
X95218190Y-95019809D01*
X95218190Y-95257904D01*
X95170571Y-95353142D01*
X95122952Y-95400761D01*
X95027714Y-95448380D01*
X94789619Y-95448380D01*
X94694380Y-95400761D01*
X94646761Y-95353142D01*
X95503904Y-94448380D02*
X95837238Y-95448380D01*
X96170571Y-94448380D01*
X93440380Y-119989000D02*
X94583238Y-119989000D01*
X93678476Y-121356380D02*
X93678476Y-120356380D01*
X94011809Y-121070666D01*
X94345142Y-120356380D01*
X94345142Y-121356380D01*
X94583238Y-119989000D02*
X95535619Y-119989000D01*
X95345142Y-121356380D02*
X94773714Y-121356380D01*
X95059428Y-121356380D02*
X95059428Y-120356380D01*
X94964190Y-120499238D01*
X94868952Y-120594476D01*
X94773714Y-120642095D01*
X93369047Y-117195000D02*
X94369047Y-117195000D01*
X94178571Y-118562380D02*
X93845238Y-118086190D01*
X93607142Y-118562380D02*
X93607142Y-117562380D01*
X93988095Y-117562380D01*
X94083333Y-117610000D01*
X94130952Y-117657619D01*
X94178571Y-117752857D01*
X94178571Y-117895714D01*
X94130952Y-117990952D01*
X94083333Y-118038571D01*
X93988095Y-118086190D01*
X93607142Y-118086190D01*
X94369047Y-117195000D02*
X95273809Y-117195000D01*
X94607142Y-118038571D02*
X94940476Y-118038571D01*
X95083333Y-118562380D02*
X94607142Y-118562380D01*
X94607142Y-117562380D01*
X95083333Y-117562380D01*
X95273809Y-117195000D02*
X96130952Y-117195000D01*
X95464285Y-118276666D02*
X95940476Y-118276666D01*
X95369047Y-118562380D02*
X95702380Y-117562380D01*
X96035714Y-118562380D01*
X96130952Y-117195000D02*
X97130952Y-117195000D01*
X96369047Y-118562380D02*
X96369047Y-117562380D01*
X96607142Y-117562380D01*
X96749999Y-117610000D01*
X96845238Y-117705238D01*
X96892857Y-117800476D01*
X96940476Y-117990952D01*
X96940476Y-118133809D01*
X96892857Y-118324285D01*
X96845238Y-118419523D01*
X96749999Y-118514761D01*
X96607142Y-118562380D01*
X96369047Y-118562380D01*
X93289619Y-114909000D02*
X94432476Y-114909000D01*
X93432476Y-115276380D02*
X93670571Y-116276380D01*
X93861047Y-115562095D01*
X94051523Y-116276380D01*
X94289619Y-115276380D01*
X94432476Y-114909000D02*
X95432476Y-114909000D01*
X95242000Y-116276380D02*
X94908666Y-115800190D01*
X94670571Y-116276380D02*
X94670571Y-115276380D01*
X95051523Y-115276380D01*
X95146761Y-115324000D01*
X95194380Y-115371619D01*
X95242000Y-115466857D01*
X95242000Y-115609714D01*
X95194380Y-115704952D01*
X95146761Y-115752571D01*
X95051523Y-115800190D01*
X94670571Y-115800190D01*
X95432476Y-114909000D02*
X96194380Y-114909000D01*
X95527714Y-115276380D02*
X96099142Y-115276380D01*
X95813428Y-116276380D02*
X95813428Y-115276380D01*
X93202380Y-112115000D02*
X94345238Y-112115000D01*
X93440476Y-113482380D02*
X93440476Y-112482380D01*
X93773809Y-113196666D01*
X94107142Y-112482380D01*
X94107142Y-113482380D01*
X94345238Y-112115000D02*
X95250000Y-112115000D01*
X94583333Y-112958571D02*
X94916666Y-112958571D01*
X95059523Y-113482380D02*
X94583333Y-113482380D01*
X94583333Y-112482380D01*
X95059523Y-112482380D01*
X95250000Y-112115000D02*
X96250000Y-112115000D01*
X96059523Y-113482380D02*
X95726190Y-113006190D01*
X95488095Y-113482380D02*
X95488095Y-112482380D01*
X95869047Y-112482380D01*
X95964285Y-112530000D01*
X96011904Y-112577619D01*
X96059523Y-112672857D01*
X96059523Y-112815714D01*
X96011904Y-112910952D01*
X95964285Y-112958571D01*
X95869047Y-113006190D01*
X95488095Y-113006190D01*
X96250000Y-112115000D02*
X97297619Y-112115000D01*
X97154761Y-113577619D02*
X97059523Y-113530000D01*
X96964285Y-113434761D01*
X96821428Y-113291904D01*
X96726190Y-113244285D01*
X96630952Y-113244285D01*
X96678571Y-113482380D02*
X96583333Y-113434761D01*
X96488095Y-113339523D01*
X96440476Y-113149047D01*
X96440476Y-112815714D01*
X96488095Y-112625238D01*
X96583333Y-112530000D01*
X96678571Y-112482380D01*
X96869047Y-112482380D01*
X96964285Y-112530000D01*
X97059523Y-112625238D01*
X97107142Y-112815714D01*
X97107142Y-113149047D01*
X97059523Y-113339523D01*
X96964285Y-113434761D01*
X96869047Y-113482380D01*
X96678571Y-113482380D01*
X215717380Y-100226428D02*
X214717380Y-100226428D01*
X214717380Y-99988333D01*
X214765000Y-99845476D01*
X214860238Y-99750238D01*
X214955476Y-99702619D01*
X215145952Y-99655000D01*
X215288809Y-99655000D01*
X215479285Y-99702619D01*
X215574523Y-99750238D01*
X215669761Y-99845476D01*
X215717380Y-99988333D01*
X215717380Y-100226428D01*
X215717380Y-98797857D02*
X215193571Y-98797857D01*
X215098333Y-98845476D01*
X215050714Y-98940714D01*
X215050714Y-99131190D01*
X215098333Y-99226428D01*
X215669761Y-98797857D02*
X215717380Y-98893095D01*
X215717380Y-99131190D01*
X215669761Y-99226428D01*
X215574523Y-99274047D01*
X215479285Y-99274047D01*
X215384047Y-99226428D01*
X215336428Y-99131190D01*
X215336428Y-98893095D01*
X215288809Y-98797857D01*
X215050714Y-98464523D02*
X215050714Y-98083571D01*
X214717380Y-98321666D02*
X215574523Y-98321666D01*
X215669761Y-98274047D01*
X215717380Y-98178809D01*
X215717380Y-98083571D01*
X215717380Y-97321666D02*
X215193571Y-97321666D01*
X215098333Y-97369285D01*
X215050714Y-97464523D01*
X215050714Y-97655000D01*
X215098333Y-97750238D01*
X215669761Y-97321666D02*
X215717380Y-97416904D01*
X215717380Y-97655000D01*
X215669761Y-97750238D01*
X215574523Y-97797857D01*
X215479285Y-97797857D01*
X215384047Y-97750238D01*
X215336428Y-97655000D01*
X215336428Y-97416904D01*
X215288809Y-97321666D01*
X215717380Y-96083571D02*
X214717380Y-96083571D01*
X214669761Y-94893095D02*
X215955476Y-95750238D01*
X214717380Y-94369285D02*
X214717380Y-94274047D01*
X214765000Y-94178809D01*
X214812619Y-94131190D01*
X214907857Y-94083571D01*
X215098333Y-94035952D01*
X215336428Y-94035952D01*
X215526904Y-94083571D01*
X215622142Y-94131190D01*
X215669761Y-94178809D01*
X215717380Y-94274047D01*
X215717380Y-94369285D01*
X215669761Y-94464523D01*
X215622142Y-94512142D01*
X215526904Y-94559761D01*
X215336428Y-94607380D01*
X215098333Y-94607380D01*
X214907857Y-94559761D01*
X214812619Y-94512142D01*
X214765000Y-94464523D01*
X214717380Y-94369285D01*
X215431666Y-82462142D02*
X215431666Y-81985952D01*
X215717380Y-82557380D02*
X214717380Y-82224047D01*
X215717380Y-81890714D01*
X215717380Y-81128809D02*
X214717380Y-81128809D01*
X215669761Y-81128809D02*
X215717380Y-81224047D01*
X215717380Y-81414523D01*
X215669761Y-81509761D01*
X215622142Y-81557380D01*
X215526904Y-81605000D01*
X215241190Y-81605000D01*
X215145952Y-81557380D01*
X215098333Y-81509761D01*
X215050714Y-81414523D01*
X215050714Y-81224047D01*
X215098333Y-81128809D01*
X215717380Y-80224047D02*
X214717380Y-80224047D01*
X215669761Y-80224047D02*
X215717380Y-80319285D01*
X215717380Y-80509761D01*
X215669761Y-80605000D01*
X215622142Y-80652619D01*
X215526904Y-80700238D01*
X215241190Y-80700238D01*
X215145952Y-80652619D01*
X215098333Y-80605000D01*
X215050714Y-80509761D01*
X215050714Y-80319285D01*
X215098333Y-80224047D01*
X215717380Y-79747857D02*
X215050714Y-79747857D01*
X215241190Y-79747857D02*
X215145952Y-79700238D01*
X215098333Y-79652619D01*
X215050714Y-79557380D01*
X215050714Y-79462142D01*
X215669761Y-78747857D02*
X215717380Y-78843095D01*
X215717380Y-79033571D01*
X215669761Y-79128809D01*
X215574523Y-79176428D01*
X215193571Y-79176428D01*
X215098333Y-79128809D01*
X215050714Y-79033571D01*
X215050714Y-78843095D01*
X215098333Y-78747857D01*
X215193571Y-78700238D01*
X215288809Y-78700238D01*
X215384047Y-79176428D01*
X215669761Y-78319285D02*
X215717380Y-78224047D01*
X215717380Y-78033571D01*
X215669761Y-77938333D01*
X215574523Y-77890714D01*
X215526904Y-77890714D01*
X215431666Y-77938333D01*
X215384047Y-78033571D01*
X215384047Y-78176428D01*
X215336428Y-78271666D01*
X215241190Y-78319285D01*
X215193571Y-78319285D01*
X215098333Y-78271666D01*
X215050714Y-78176428D01*
X215050714Y-78033571D01*
X215098333Y-77938333D01*
X215669761Y-77509761D02*
X215717380Y-77414523D01*
X215717380Y-77224047D01*
X215669761Y-77128809D01*
X215574523Y-77081190D01*
X215526904Y-77081190D01*
X215431666Y-77128809D01*
X215384047Y-77224047D01*
X215384047Y-77366904D01*
X215336428Y-77462142D01*
X215241190Y-77509761D01*
X215193571Y-77509761D01*
X215098333Y-77462142D01*
X215050714Y-77366904D01*
X215050714Y-77224047D01*
X215098333Y-77128809D01*
X215717380Y-75890714D02*
X214717380Y-75890714D01*
X214669761Y-74700238D02*
X215955476Y-75557380D01*
X214717380Y-74176428D02*
X214717380Y-73985952D01*
X214765000Y-73890714D01*
X214860238Y-73795476D01*
X215050714Y-73747857D01*
X215384047Y-73747857D01*
X215574523Y-73795476D01*
X215669761Y-73890714D01*
X215717380Y-73985952D01*
X215717380Y-74176428D01*
X215669761Y-74271666D01*
X215574523Y-74366904D01*
X215384047Y-74414523D01*
X215050714Y-74414523D01*
X214860238Y-74366904D01*
X214765000Y-74271666D01*
X214717380Y-74176428D01*
X215146000Y-126491904D02*
X215098380Y-126587142D01*
X215098380Y-126730000D01*
X215146000Y-126872857D01*
X215241238Y-126968095D01*
X215336476Y-127015714D01*
X215526952Y-127063333D01*
X215669809Y-127063333D01*
X215860285Y-127015714D01*
X215955523Y-126968095D01*
X216050761Y-126872857D01*
X216098380Y-126730000D01*
X216098380Y-126634761D01*
X216050761Y-126491904D01*
X216003142Y-126444285D01*
X215669809Y-126444285D01*
X215669809Y-126634761D01*
X216098380Y-126015714D02*
X215098380Y-126015714D01*
X216098380Y-125444285D01*
X215098380Y-125444285D01*
X216098380Y-124968095D02*
X215098380Y-124968095D01*
X215098380Y-124730000D01*
X215146000Y-124587142D01*
X215241238Y-124491904D01*
X215336476Y-124444285D01*
X215526952Y-124396666D01*
X215669809Y-124396666D01*
X215860285Y-124444285D01*
X215955523Y-124491904D01*
X216050761Y-124587142D01*
X216098380Y-124730000D01*
X216098380Y-124968095D01*
X213598285Y-122118428D02*
X214360190Y-122118428D01*
X213979238Y-122499380D02*
X213979238Y-121737476D01*
X215312571Y-121499380D02*
X214836380Y-121499380D01*
X214788761Y-121975571D01*
X214836380Y-121927952D01*
X214931619Y-121880333D01*
X215169714Y-121880333D01*
X215264952Y-121927952D01*
X215312571Y-121975571D01*
X215360190Y-122070809D01*
X215360190Y-122308904D01*
X215312571Y-122404142D01*
X215264952Y-122451761D01*
X215169714Y-122499380D01*
X214931619Y-122499380D01*
X214836380Y-122451761D01*
X214788761Y-122404142D01*
X215645904Y-121499380D02*
X215979238Y-122499380D01*
X216312571Y-121499380D01*
X214122142Y-118719000D02*
X214598333Y-118719000D01*
X214360238Y-120086380D02*
X214360238Y-119086380D01*
X214598333Y-118719000D02*
X215645952Y-118719000D01*
X214836428Y-120086380D02*
X214836428Y-119086380D01*
X215407857Y-120086380D01*
X215407857Y-119086380D01*
X215645952Y-118719000D02*
X216407857Y-118719000D01*
X215741190Y-119086380D02*
X216312619Y-119086380D01*
X216026904Y-120086380D02*
X216026904Y-119086380D01*
X213264952Y-116179000D02*
X214407809Y-116179000D01*
X213407809Y-116546380D02*
X213645904Y-117546380D01*
X213836380Y-116832095D01*
X214026857Y-117546380D01*
X214264952Y-116546380D01*
X214407809Y-116179000D02*
X215264952Y-116179000D01*
X214598285Y-117260666D02*
X215074476Y-117260666D01*
X214503047Y-117546380D02*
X214836380Y-116546380D01*
X215169714Y-117546380D01*
X215264952Y-116179000D02*
X215741142Y-116179000D01*
X215503047Y-117546380D02*
X215503047Y-116546380D01*
X215741142Y-116179000D02*
X216503047Y-116179000D01*
X215836380Y-116546380D02*
X216407809Y-116546380D01*
X216122095Y-117546380D02*
X216122095Y-116546380D01*
X212614142Y-113512000D02*
X213090333Y-113512000D01*
X212852238Y-114879380D02*
X212852238Y-113879380D01*
X213090333Y-113512000D02*
X214137952Y-113512000D01*
X213328428Y-114879380D02*
X213328428Y-113879380D01*
X213899857Y-114879380D01*
X213899857Y-113879380D01*
X214137952Y-113512000D02*
X214899857Y-113512000D01*
X214233190Y-113879380D02*
X214804619Y-113879380D01*
X214518904Y-114879380D02*
X214518904Y-113879380D01*
X214899857Y-113512000D02*
X215899857Y-113512000D01*
X215709380Y-114784142D02*
X215661761Y-114831761D01*
X215518904Y-114879380D01*
X215423666Y-114879380D01*
X215280809Y-114831761D01*
X215185571Y-114736523D01*
X215137952Y-114641285D01*
X215090333Y-114450809D01*
X215090333Y-114307952D01*
X215137952Y-114117476D01*
X215185571Y-114022238D01*
X215280809Y-113927000D01*
X215423666Y-113879380D01*
X215518904Y-113879380D01*
X215661761Y-113927000D01*
X215709380Y-113974619D01*
X215899857Y-113512000D02*
X216899857Y-113512000D01*
X216137952Y-114879380D02*
X216137952Y-113879380D01*
X216709380Y-114879380D02*
X216280809Y-114307952D01*
X216709380Y-113879380D02*
X216137952Y-114450809D01*
X212034714Y-108559000D02*
X212510904Y-108559000D01*
X212272809Y-109926380D02*
X212272809Y-108926380D01*
X212510904Y-108559000D02*
X213558523Y-108559000D01*
X212939476Y-108926380D02*
X213129952Y-108926380D01*
X213225190Y-108974000D01*
X213320428Y-109069238D01*
X213368047Y-109259714D01*
X213368047Y-109593047D01*
X213320428Y-109783523D01*
X213225190Y-109878761D01*
X213129952Y-109926380D01*
X212939476Y-109926380D01*
X212844238Y-109878761D01*
X212749000Y-109783523D01*
X212701380Y-109593047D01*
X212701380Y-109259714D01*
X212749000Y-109069238D01*
X212844238Y-108974000D01*
X212939476Y-108926380D01*
X213558523Y-108559000D02*
X214701380Y-108559000D01*
X213701380Y-108926380D02*
X213939476Y-109926380D01*
X214129952Y-109212095D01*
X214320428Y-109926380D01*
X214558523Y-108926380D01*
X214701380Y-108559000D02*
X215701380Y-108559000D01*
X215510904Y-109926380D02*
X215177571Y-109450190D01*
X214939476Y-109926380D02*
X214939476Y-108926380D01*
X215320428Y-108926380D01*
X215415666Y-108974000D01*
X215463285Y-109021619D01*
X215510904Y-109116857D01*
X215510904Y-109259714D01*
X215463285Y-109354952D01*
X215415666Y-109402571D01*
X215320428Y-109450190D01*
X214939476Y-109450190D01*
X215701380Y-108559000D02*
X216463285Y-108559000D01*
X215796619Y-108926380D02*
X216368047Y-108926380D01*
X216082333Y-109926380D02*
X216082333Y-108926380D01*
X211225142Y-111099000D02*
X211701333Y-111099000D01*
X211463238Y-112466380D02*
X211463238Y-111466380D01*
X211701333Y-111099000D02*
X212748952Y-111099000D01*
X212129904Y-111466380D02*
X212320380Y-111466380D01*
X212415619Y-111514000D01*
X212510857Y-111609238D01*
X212558476Y-111799714D01*
X212558476Y-112133047D01*
X212510857Y-112323523D01*
X212415619Y-112418761D01*
X212320380Y-112466380D01*
X212129904Y-112466380D01*
X212034666Y-112418761D01*
X211939428Y-112323523D01*
X211891809Y-112133047D01*
X211891809Y-111799714D01*
X211939428Y-111609238D01*
X212034666Y-111514000D01*
X212129904Y-111466380D01*
X212748952Y-111099000D02*
X213748952Y-111099000D01*
X213558476Y-112466380D02*
X213225142Y-111990190D01*
X212987047Y-112466380D02*
X212987047Y-111466380D01*
X213368000Y-111466380D01*
X213463238Y-111514000D01*
X213510857Y-111561619D01*
X213558476Y-111656857D01*
X213558476Y-111799714D01*
X213510857Y-111894952D01*
X213463238Y-111942571D01*
X213368000Y-111990190D01*
X212987047Y-111990190D01*
X213748952Y-111099000D02*
X214653714Y-111099000D01*
X213987047Y-111942571D02*
X214320380Y-111942571D01*
X214463238Y-112466380D02*
X213987047Y-112466380D01*
X213987047Y-111466380D01*
X214463238Y-111466380D01*
X214653714Y-111099000D02*
X215510857Y-111099000D01*
X214844190Y-112180666D02*
X215320380Y-112180666D01*
X214748952Y-112466380D02*
X215082285Y-111466380D01*
X215415619Y-112466380D01*
X215510857Y-111099000D02*
X216510857Y-111099000D01*
X215748952Y-112466380D02*
X215748952Y-111466380D01*
X215987047Y-111466380D01*
X216129904Y-111514000D01*
X216225142Y-111609238D01*
X216272761Y-111704476D01*
X216320380Y-111894952D01*
X216320380Y-112037809D01*
X216272761Y-112228285D01*
X216225142Y-112323523D01*
X216129904Y-112418761D01*
X215987047Y-112466380D01*
X215748952Y-112466380D01*
X215852380Y-106132380D02*
X215947619Y-106132380D01*
X216042857Y-106180000D01*
X216090476Y-106227619D01*
X216138095Y-106322857D01*
X216185714Y-106513333D01*
X216185714Y-106751428D01*
X216138095Y-106941904D01*
X216090476Y-107037142D01*
X216042857Y-107084761D01*
X215947619Y-107132380D01*
X215852380Y-107132380D01*
X215757142Y-107084761D01*
X215709523Y-107037142D01*
X215661904Y-106941904D01*
X215614285Y-106751428D01*
X215614285Y-106513333D01*
X215661904Y-106322857D01*
X215709523Y-106227619D01*
X215757142Y-106180000D01*
X215852380Y-106132380D01*
X215566666Y-88352380D02*
X216233333Y-88352380D01*
X215804761Y-89352380D01*
X215852380Y-85812380D02*
X215947619Y-85812380D01*
X216042857Y-85860000D01*
X216090476Y-85907619D01*
X216138095Y-86002857D01*
X216185714Y-86193333D01*
X216185714Y-86431428D01*
X216138095Y-86621904D01*
X216090476Y-86717142D01*
X216042857Y-86764761D01*
X215947619Y-86812380D01*
X215852380Y-86812380D01*
X215757142Y-86764761D01*
X215709523Y-86717142D01*
X215661904Y-86621904D01*
X215614285Y-86431428D01*
X215614285Y-86193333D01*
X215661904Y-86002857D01*
X215709523Y-85907619D01*
X215757142Y-85860000D01*
X215852380Y-85812380D01*
X215566666Y-68032380D02*
X216233333Y-68032380D01*
X215804761Y-69032380D01*
X117810595Y-121102380D02*
X117810595Y-120102380D01*
X118191547Y-120102380D01*
X118286785Y-120150000D01*
X118334404Y-120197619D01*
X118382023Y-120292857D01*
X118382023Y-120435714D01*
X118334404Y-120530952D01*
X118286785Y-120578571D01*
X118191547Y-120626190D01*
X117810595Y-120626190D01*
X118715357Y-120102380D02*
X118953452Y-121102380D01*
X119143928Y-120388095D01*
X119334404Y-121102380D01*
X119572500Y-120102380D01*
X120524880Y-121102380D02*
X120191547Y-120626190D01*
X119953452Y-121102380D02*
X119953452Y-120102380D01*
X120334404Y-120102380D01*
X120429642Y-120150000D01*
X120477261Y-120197619D01*
X120524880Y-120292857D01*
X120524880Y-120435714D01*
X120477261Y-120530952D01*
X120429642Y-120578571D01*
X120334404Y-120626190D01*
X119953452Y-120626190D01*
D11*
X91440000Y-109160000D02*
X92770000Y-109160000D01*
X92770000Y-109160000D02*
X92770000Y-110490000D01*
X92770000Y-111760000D02*
X92770000Y-121980000D01*
X90110000Y-121980000D02*
X92770000Y-121980000D01*
X90110000Y-111760000D02*
X90110000Y-121980000D01*
X90110000Y-111760000D02*
X92770000Y-111760000D01*
X130580000Y-118015000D02*
X130910000Y-118015000D01*
X130910000Y-118015000D02*
X130910000Y-124555000D01*
X130910000Y-124555000D02*
X130580000Y-124555000D01*
X128500000Y-118015000D02*
X128170000Y-118015000D01*
X128170000Y-118015000D02*
X128170000Y-124555000D01*
X128170000Y-124555000D02*
X128500000Y-124555000D01*
X148650000Y-92440000D02*
G75*
G02X148650000Y-90440000I0J1000000D01*
G01*
X148650000Y-90440000D02*
X148650000Y-84980000D01*
X148650000Y-84980000D02*
X97730000Y-84980000D01*
X97730000Y-84980000D02*
X97730000Y-97900000D01*
X97730000Y-97900000D02*
X148650000Y-97900000D01*
X148650000Y-97900000D02*
X148650000Y-92440000D01*
X148710000Y-82490000D02*
X97670000Y-82490000D01*
X97670000Y-82490000D02*
X97670000Y-100390000D01*
X97670000Y-100390000D02*
X148710000Y-100390000D01*
X148710000Y-100390000D02*
X148710000Y-82490000D01*
X112860000Y-116325000D02*
X112860000Y-112065000D01*
X112860000Y-112065000D02*
X100540000Y-112065000D01*
X100540000Y-112065000D02*
X100540000Y-116325000D01*
X112860000Y-120425000D02*
X112860000Y-128785000D01*
X112860000Y-128785000D02*
X100540000Y-128785000D01*
X100540000Y-128785000D02*
X100540000Y-120425000D01*
X107950000Y-111845000D02*
X108450000Y-111345000D01*
X108450000Y-111345000D02*
X107450000Y-111345000D01*
X107450000Y-111345000D02*
X107950000Y-111845000D01*
X145511000Y-107329000D02*
X145511000Y-106071000D01*
X147351000Y-107329000D02*
X147351000Y-106071000D01*
X118759000Y-80930000D02*
X117501000Y-80930000D01*
X118759000Y-79090000D02*
X117501000Y-79090000D01*
X123811000Y-79090000D02*
X125069000Y-79090000D01*
X123811000Y-80930000D02*
X125069000Y-80930000D01*
X122635000Y-114665000D02*
G75*
G03X122635000Y-114665000I-2620000J0D01*
G01*
X186069000Y-67660000D02*
X184811000Y-67660000D01*
X186069000Y-69500000D02*
X184811000Y-69500000D01*
X212739000Y-69500000D02*
X211481000Y-69500000D01*
X212739000Y-67660000D02*
X211481000Y-67660000D01*
X208901000Y-126650000D02*
X210159000Y-126650000D01*
X208901000Y-124810000D02*
X210159000Y-124810000D01*
X187339000Y-105760000D02*
X186081000Y-105760000D01*
X187339000Y-107600000D02*
X186081000Y-107600000D01*
X217110000Y-128330000D02*
X219770000Y-128330000D01*
X217110000Y-69850000D02*
X217110000Y-128330000D01*
X219770000Y-69850000D02*
X219770000Y-128330000D01*
X217110000Y-69850000D02*
X219770000Y-69850000D01*
X217110000Y-68580000D02*
X217110000Y-67250000D01*
X217110000Y-67250000D02*
X218440000Y-67250000D01*
X121920000Y-69910000D02*
X121920000Y-67250000D01*
X121920000Y-69910000D02*
X160080000Y-69910000D01*
X160080000Y-69910000D02*
X160080000Y-67250000D01*
X121920000Y-67250000D02*
X160080000Y-67250000D01*
X119320000Y-67250000D02*
X120650000Y-67250000D01*
X119320000Y-68580000D02*
X119320000Y-67250000D01*
X96520000Y-69910000D02*
X96520000Y-67250000D01*
X96520000Y-69910000D02*
X114360000Y-69910000D01*
X114360000Y-69910000D02*
X114360000Y-67250000D01*
X96520000Y-67250000D02*
X114360000Y-67250000D01*
X93920000Y-67250000D02*
X95250000Y-67250000D01*
X93920000Y-68580000D02*
X93920000Y-67250000D01*
X140954000Y-109033000D02*
G75*
G02X138954000Y-109033000I-1000000J0D01*
G01*
X138954000Y-109033000D02*
X137304000Y-109033000D01*
X137304000Y-109033000D02*
X137304000Y-126933000D01*
X137304000Y-126933000D02*
X142604000Y-126933000D01*
X142604000Y-126933000D02*
X142604000Y-109033000D01*
X142604000Y-109033000D02*
X140954000Y-109033000D01*
X156066000Y-109033000D02*
X154416000Y-109033000D01*
X156066000Y-126933000D02*
X156066000Y-109033000D01*
X150766000Y-126933000D02*
X156066000Y-126933000D01*
X150766000Y-109033000D02*
X150766000Y-126933000D01*
X152416000Y-109033000D02*
X150766000Y-109033000D01*
X154416000Y-109033000D02*
G75*
G02X152416000Y-109033000I-1000000J0D01*
G01*
X178800000Y-106620000D02*
G75*
G02X176800000Y-106620000I-1000000J0D01*
G01*
X176800000Y-106620000D02*
X175150000Y-106620000D01*
X175150000Y-106620000D02*
X175150000Y-127060000D01*
X175150000Y-127060000D02*
X180450000Y-127060000D01*
X180450000Y-127060000D02*
X180450000Y-106620000D01*
X180450000Y-106620000D02*
X178800000Y-106620000D01*
X173720000Y-67250000D02*
G75*
G02X171720000Y-67250000I-1000000J0D01*
G01*
X171720000Y-67250000D02*
X166260000Y-67250000D01*
X166260000Y-67250000D02*
X166260000Y-102930000D01*
X166260000Y-102930000D02*
X179180000Y-102930000D01*
X179180000Y-102930000D02*
X179180000Y-67250000D01*
X179180000Y-67250000D02*
X173720000Y-67250000D01*
X163770000Y-67190000D02*
X163770000Y-102990000D01*
X163770000Y-102990000D02*
X181670000Y-102990000D01*
X181670000Y-102990000D02*
X181670000Y-67190000D01*
X181670000Y-67190000D02*
X163770000Y-67190000D01*
X208340000Y-67190000D02*
X190440000Y-67190000D01*
X208340000Y-102990000D02*
X208340000Y-67190000D01*
X190440000Y-102990000D02*
X208340000Y-102990000D01*
X190440000Y-67190000D02*
X190440000Y-102990000D01*
X205850000Y-67250000D02*
X200390000Y-67250000D01*
X205850000Y-102930000D02*
X205850000Y-67250000D01*
X192930000Y-102930000D02*
X205850000Y-102930000D01*
X192930000Y-67250000D02*
X192930000Y-102930000D01*
X198390000Y-67250000D02*
X192930000Y-67250000D01*
X200390000Y-67250000D02*
G75*
G02X198390000Y-67250000I-1000000J0D01*
G01*
X212150000Y-119110000D02*
G75*
G02X212150000Y-117110000I0J1000000D01*
G01*
X212150000Y-117110000D02*
X212150000Y-115460000D01*
X212150000Y-115460000D02*
X186630000Y-115460000D01*
X186630000Y-115460000D02*
X186630000Y-120760000D01*
X186630000Y-120760000D02*
X212150000Y-120760000D01*
X212150000Y-120760000D02*
X212150000Y-119110000D01*
X90110000Y-88960000D02*
X92770000Y-88960000D01*
X90110000Y-78740000D02*
X90110000Y-88960000D01*
X92770000Y-78740000D02*
X92770000Y-88960000D01*
X90110000Y-78740000D02*
X92770000Y-78740000D01*
X90110000Y-77470000D02*
X90110000Y-76140000D01*
X90110000Y-76140000D02*
X91440000Y-76140000D01*
X90110000Y-96520000D02*
X92770000Y-96520000D01*
X90110000Y-96520000D02*
X90110000Y-106740000D01*
X90110000Y-106740000D02*
X92770000Y-106740000D01*
X92770000Y-96520000D02*
X92770000Y-106740000D01*
X92770000Y-93920000D02*
X92770000Y-95250000D01*
X91440000Y-93920000D02*
X92770000Y-93920000D01*
X120305000Y-123380000D02*
X120305000Y-123224000D01*
X120305000Y-125696000D02*
X120305000Y-125540000D01*
X117703870Y-123380163D02*
G75*
G02X119785961Y-123380000I1041130J-1079837D01*
G01*
X117703870Y-125539837D02*
G75*
G03X119785961Y-125540000I1041130J1079837D01*
G01*
X117072665Y-123381392D02*
G75*
G02X120305000Y-123224484I1672335J-1078608D01*
G01*
X117072665Y-125538608D02*
G75*
G03X120305000Y-125695516I1672335J1078608D01*
G01*
X125830000Y-118015000D02*
X125500000Y-118015000D01*
X125830000Y-124555000D02*
X125830000Y-118015000D01*
X125500000Y-124555000D02*
X125830000Y-124555000D01*
X123090000Y-118015000D02*
X123420000Y-118015000D01*
X123090000Y-124555000D02*
X123090000Y-118015000D01*
X123420000Y-124555000D02*
X123090000Y-124555000D01*
X108617000Y-102211000D02*
X108617000Y-101881000D01*
X108617000Y-101881000D02*
X115157000Y-101881000D01*
X115157000Y-101881000D02*
X115157000Y-102211000D01*
X108617000Y-104291000D02*
X108617000Y-104621000D01*
X108617000Y-104621000D02*
X115157000Y-104621000D01*
X115157000Y-104621000D02*
X115157000Y-104291000D01*
X165973000Y-109033000D02*
G75*
G02X163973000Y-109033000I-1000000J0D01*
G01*
X163973000Y-109033000D02*
X162323000Y-109033000D01*
X162323000Y-109033000D02*
X162323000Y-126933000D01*
X162323000Y-126933000D02*
X167623000Y-126933000D01*
X167623000Y-126933000D02*
X167623000Y-109033000D01*
X167623000Y-109033000D02*
X165973000Y-109033000D01*
D10*
X91106666Y-107656380D02*
X91106666Y-108370666D01*
X91059047Y-108513523D01*
X90963809Y-108608761D01*
X90820952Y-108656380D01*
X90725714Y-108656380D01*
X92011428Y-107989714D02*
X92011428Y-108656380D01*
X91773333Y-107608761D02*
X91535238Y-108323047D01*
X92154285Y-108323047D01*
X131913333Y-120467380D02*
X131580000Y-119991190D01*
X131341904Y-120467380D02*
X131341904Y-119467380D01*
X131722857Y-119467380D01*
X131818095Y-119515000D01*
X131865714Y-119562619D01*
X131913333Y-119657857D01*
X131913333Y-119800714D01*
X131865714Y-119895952D01*
X131818095Y-119943571D01*
X131722857Y-119991190D01*
X131341904Y-119991190D01*
X132294285Y-119562619D02*
X132341904Y-119515000D01*
X132437142Y-119467380D01*
X132675238Y-119467380D01*
X132770476Y-119515000D01*
X132818095Y-119562619D01*
X132865714Y-119657857D01*
X132865714Y-119753095D01*
X132818095Y-119895952D01*
X132246666Y-120467380D01*
X132865714Y-120467380D01*
X94996095Y-126372880D02*
X94996095Y-125372880D01*
X94996095Y-125849071D02*
X95567523Y-125849071D01*
X95567523Y-126372880D02*
X95567523Y-125372880D01*
X95996095Y-125468119D02*
X96043714Y-125420500D01*
X96138952Y-125372880D01*
X96377047Y-125372880D01*
X96472285Y-125420500D01*
X96519904Y-125468119D01*
X96567523Y-125563357D01*
X96567523Y-125658595D01*
X96519904Y-125801452D01*
X95948476Y-126372880D01*
X96567523Y-126372880D01*
X89725595Y-70048380D02*
X89725595Y-69048380D01*
X89725595Y-69524571D02*
X90297023Y-69524571D01*
X90297023Y-70048380D02*
X90297023Y-69048380D01*
X91297023Y-70048380D02*
X90725595Y-70048380D01*
X91011309Y-70048380D02*
X91011309Y-69048380D01*
X90916071Y-69191238D01*
X90820833Y-69286476D01*
X90725595Y-69334095D01*
X149733095Y-90892380D02*
X149733095Y-91701904D01*
X149780714Y-91797142D01*
X149828333Y-91844761D01*
X149923571Y-91892380D01*
X150114047Y-91892380D01*
X150209285Y-91844761D01*
X150256904Y-91797142D01*
X150304523Y-91701904D01*
X150304523Y-90892380D01*
X150685476Y-90892380D02*
X151304523Y-90892380D01*
X150971190Y-91273333D01*
X151114047Y-91273333D01*
X151209285Y-91320952D01*
X151256904Y-91368571D01*
X151304523Y-91463809D01*
X151304523Y-91701904D01*
X151256904Y-91797142D01*
X151209285Y-91844761D01*
X151114047Y-91892380D01*
X150828333Y-91892380D01*
X150733095Y-91844761D01*
X150685476Y-91797142D01*
X105711666Y-109942380D02*
X105711666Y-110656666D01*
X105664047Y-110799523D01*
X105568809Y-110894761D01*
X105425952Y-110942380D01*
X105330714Y-110942380D01*
X106140238Y-110037619D02*
X106187857Y-109990000D01*
X106283095Y-109942380D01*
X106521190Y-109942380D01*
X106616428Y-109990000D01*
X106664047Y-110037619D01*
X106711666Y-110132857D01*
X106711666Y-110228095D01*
X106664047Y-110370952D01*
X106092619Y-110942380D01*
X106711666Y-110942380D01*
X144214333Y-107057142D02*
X144166714Y-107104761D01*
X144023857Y-107152380D01*
X143928619Y-107152380D01*
X143785761Y-107104761D01*
X143690523Y-107009523D01*
X143642904Y-106914285D01*
X143595285Y-106723809D01*
X143595285Y-106580952D01*
X143642904Y-106390476D01*
X143690523Y-106295238D01*
X143785761Y-106200000D01*
X143928619Y-106152380D01*
X144023857Y-106152380D01*
X144166714Y-106200000D01*
X144214333Y-106247619D01*
X145166714Y-107152380D02*
X144595285Y-107152380D01*
X144881000Y-107152380D02*
X144881000Y-106152380D01*
X144785761Y-106295238D01*
X144690523Y-106390476D01*
X144595285Y-106438095D01*
X117943333Y-78462142D02*
X117895714Y-78509761D01*
X117752857Y-78557380D01*
X117657619Y-78557380D01*
X117514761Y-78509761D01*
X117419523Y-78414523D01*
X117371904Y-78319285D01*
X117324285Y-78128809D01*
X117324285Y-77985952D01*
X117371904Y-77795476D01*
X117419523Y-77700238D01*
X117514761Y-77605000D01*
X117657619Y-77557380D01*
X117752857Y-77557380D01*
X117895714Y-77605000D01*
X117943333Y-77652619D01*
X118324285Y-77652619D02*
X118371904Y-77605000D01*
X118467142Y-77557380D01*
X118705238Y-77557380D01*
X118800476Y-77605000D01*
X118848095Y-77652619D01*
X118895714Y-77747857D01*
X118895714Y-77843095D01*
X118848095Y-77985952D01*
X118276666Y-78557380D01*
X118895714Y-78557380D01*
X124273333Y-78317142D02*
X124225714Y-78364761D01*
X124082857Y-78412380D01*
X123987619Y-78412380D01*
X123844761Y-78364761D01*
X123749523Y-78269523D01*
X123701904Y-78174285D01*
X123654285Y-77983809D01*
X123654285Y-77840952D01*
X123701904Y-77650476D01*
X123749523Y-77555238D01*
X123844761Y-77460000D01*
X123987619Y-77412380D01*
X124082857Y-77412380D01*
X124225714Y-77460000D01*
X124273333Y-77507619D01*
X124606666Y-77412380D02*
X125225714Y-77412380D01*
X124892380Y-77793333D01*
X125035238Y-77793333D01*
X125130476Y-77840952D01*
X125178095Y-77888571D01*
X125225714Y-77983809D01*
X125225714Y-78221904D01*
X125178095Y-78317142D01*
X125130476Y-78364761D01*
X125035238Y-78412380D01*
X124749523Y-78412380D01*
X124654285Y-78364761D01*
X124606666Y-78317142D01*
X123598333Y-115022142D02*
X123550714Y-115069761D01*
X123407857Y-115117380D01*
X123312619Y-115117380D01*
X123169761Y-115069761D01*
X123074523Y-114974523D01*
X123026904Y-114879285D01*
X122979285Y-114688809D01*
X122979285Y-114545952D01*
X123026904Y-114355476D01*
X123074523Y-114260238D01*
X123169761Y-114165000D01*
X123312619Y-114117380D01*
X123407857Y-114117380D01*
X123550714Y-114165000D01*
X123598333Y-114212619D01*
X124455476Y-114450714D02*
X124455476Y-115117380D01*
X124217380Y-114069761D02*
X123979285Y-114784047D01*
X124598333Y-114784047D01*
X185273333Y-70987142D02*
X185225714Y-71034761D01*
X185082857Y-71082380D01*
X184987619Y-71082380D01*
X184844761Y-71034761D01*
X184749523Y-70939523D01*
X184701904Y-70844285D01*
X184654285Y-70653809D01*
X184654285Y-70510952D01*
X184701904Y-70320476D01*
X184749523Y-70225238D01*
X184844761Y-70130000D01*
X184987619Y-70082380D01*
X185082857Y-70082380D01*
X185225714Y-70130000D01*
X185273333Y-70177619D01*
X186178095Y-70082380D02*
X185701904Y-70082380D01*
X185654285Y-70558571D01*
X185701904Y-70510952D01*
X185797142Y-70463333D01*
X186035238Y-70463333D01*
X186130476Y-70510952D01*
X186178095Y-70558571D01*
X186225714Y-70653809D01*
X186225714Y-70891904D01*
X186178095Y-70987142D01*
X186130476Y-71034761D01*
X186035238Y-71082380D01*
X185797142Y-71082380D01*
X185701904Y-71034761D01*
X185654285Y-70987142D01*
X210653333Y-70842142D02*
X210605714Y-70889761D01*
X210462857Y-70937380D01*
X210367619Y-70937380D01*
X210224761Y-70889761D01*
X210129523Y-70794523D01*
X210081904Y-70699285D01*
X210034285Y-70508809D01*
X210034285Y-70365952D01*
X210081904Y-70175476D01*
X210129523Y-70080238D01*
X210224761Y-69985000D01*
X210367619Y-69937380D01*
X210462857Y-69937380D01*
X210605714Y-69985000D01*
X210653333Y-70032619D01*
X211510476Y-69937380D02*
X211320000Y-69937380D01*
X211224761Y-69985000D01*
X211177142Y-70032619D01*
X211081904Y-70175476D01*
X211034285Y-70365952D01*
X211034285Y-70746904D01*
X211081904Y-70842142D01*
X211129523Y-70889761D01*
X211224761Y-70937380D01*
X211415238Y-70937380D01*
X211510476Y-70889761D01*
X211558095Y-70842142D01*
X211605714Y-70746904D01*
X211605714Y-70508809D01*
X211558095Y-70413571D01*
X211510476Y-70365952D01*
X211415238Y-70318333D01*
X211224761Y-70318333D01*
X211129523Y-70365952D01*
X211081904Y-70413571D01*
X211034285Y-70508809D01*
X205573333Y-126087142D02*
X205525714Y-126134761D01*
X205382857Y-126182380D01*
X205287619Y-126182380D01*
X205144761Y-126134761D01*
X205049523Y-126039523D01*
X205001904Y-125944285D01*
X204954285Y-125753809D01*
X204954285Y-125610952D01*
X205001904Y-125420476D01*
X205049523Y-125325238D01*
X205144761Y-125230000D01*
X205287619Y-125182380D01*
X205382857Y-125182380D01*
X205525714Y-125230000D01*
X205573333Y-125277619D01*
X205906666Y-125182380D02*
X206573333Y-125182380D01*
X206144761Y-126182380D01*
X186543333Y-109087142D02*
X186495714Y-109134761D01*
X186352857Y-109182380D01*
X186257619Y-109182380D01*
X186114761Y-109134761D01*
X186019523Y-109039523D01*
X185971904Y-108944285D01*
X185924285Y-108753809D01*
X185924285Y-108610952D01*
X185971904Y-108420476D01*
X186019523Y-108325238D01*
X186114761Y-108230000D01*
X186257619Y-108182380D01*
X186352857Y-108182380D01*
X186495714Y-108230000D01*
X186543333Y-108277619D01*
X187114761Y-108610952D02*
X187019523Y-108563333D01*
X186971904Y-108515714D01*
X186924285Y-108420476D01*
X186924285Y-108372857D01*
X186971904Y-108277619D01*
X187019523Y-108230000D01*
X187114761Y-108182380D01*
X187305238Y-108182380D01*
X187400476Y-108230000D01*
X187448095Y-108277619D01*
X187495714Y-108372857D01*
X187495714Y-108420476D01*
X187448095Y-108515714D01*
X187400476Y-108563333D01*
X187305238Y-108610952D01*
X187114761Y-108610952D01*
X187019523Y-108658571D01*
X186971904Y-108706190D01*
X186924285Y-108801428D01*
X186924285Y-108991904D01*
X186971904Y-109087142D01*
X187019523Y-109134761D01*
X187114761Y-109182380D01*
X187305238Y-109182380D01*
X187400476Y-109134761D01*
X187448095Y-109087142D01*
X187495714Y-108991904D01*
X187495714Y-108801428D01*
X187448095Y-108706190D01*
X187400476Y-108658571D01*
X187305238Y-108610952D01*
X213661666Y-87082380D02*
X213661666Y-87796666D01*
X213614047Y-87939523D01*
X213518809Y-88034761D01*
X213375952Y-88082380D01*
X213280714Y-88082380D01*
X214042619Y-87082380D02*
X214661666Y-87082380D01*
X214328333Y-87463333D01*
X214471190Y-87463333D01*
X214566428Y-87510952D01*
X214614047Y-87558571D01*
X214661666Y-87653809D01*
X214661666Y-87891904D01*
X214614047Y-87987142D01*
X214566428Y-88034761D01*
X214471190Y-88082380D01*
X214185476Y-88082380D01*
X214090238Y-88034761D01*
X214042619Y-87987142D01*
X117546666Y-68032380D02*
X117546666Y-68746666D01*
X117499047Y-68889523D01*
X117403809Y-68984761D01*
X117260952Y-69032380D01*
X117165714Y-69032380D01*
X118499047Y-68032380D02*
X118022857Y-68032380D01*
X117975238Y-68508571D01*
X118022857Y-68460952D01*
X118118095Y-68413333D01*
X118356190Y-68413333D01*
X118451428Y-68460952D01*
X118499047Y-68508571D01*
X118546666Y-68603809D01*
X118546666Y-68841904D01*
X118499047Y-68937142D01*
X118451428Y-68984761D01*
X118356190Y-69032380D01*
X118118095Y-69032380D01*
X118022857Y-68984761D01*
X117975238Y-68937142D01*
X92146666Y-68032380D02*
X92146666Y-68746666D01*
X92099047Y-68889523D01*
X92003809Y-68984761D01*
X91860952Y-69032380D01*
X91765714Y-69032380D01*
X93051428Y-68032380D02*
X92860952Y-68032380D01*
X92765714Y-68080000D01*
X92718095Y-68127619D01*
X92622857Y-68270476D01*
X92575238Y-68460952D01*
X92575238Y-68841904D01*
X92622857Y-68937142D01*
X92670476Y-68984761D01*
X92765714Y-69032380D01*
X92956190Y-69032380D01*
X93051428Y-68984761D01*
X93099047Y-68937142D01*
X93146666Y-68841904D01*
X93146666Y-68603809D01*
X93099047Y-68508571D01*
X93051428Y-68460952D01*
X92956190Y-68413333D01*
X92765714Y-68413333D01*
X92670476Y-68460952D01*
X92622857Y-68508571D01*
X92575238Y-68603809D01*
X139192095Y-107485380D02*
X139192095Y-108294904D01*
X139239714Y-108390142D01*
X139287333Y-108437761D01*
X139382571Y-108485380D01*
X139573047Y-108485380D01*
X139668285Y-108437761D01*
X139715904Y-108390142D01*
X139763523Y-108294904D01*
X139763523Y-107485380D01*
X140763523Y-108485380D02*
X140192095Y-108485380D01*
X140477809Y-108485380D02*
X140477809Y-107485380D01*
X140382571Y-107628238D01*
X140287333Y-107723476D01*
X140192095Y-107771095D01*
X152654095Y-107485380D02*
X152654095Y-108294904D01*
X152701714Y-108390142D01*
X152749333Y-108437761D01*
X152844571Y-108485380D01*
X153035047Y-108485380D01*
X153130285Y-108437761D01*
X153177904Y-108390142D01*
X153225523Y-108294904D01*
X153225523Y-107485380D01*
X153654095Y-107580619D02*
X153701714Y-107533000D01*
X153796952Y-107485380D01*
X154035047Y-107485380D01*
X154130285Y-107533000D01*
X154177904Y-107580619D01*
X154225523Y-107675857D01*
X154225523Y-107771095D01*
X154177904Y-107913952D01*
X153606476Y-108485380D01*
X154225523Y-108485380D01*
X177038095Y-105072380D02*
X177038095Y-105881904D01*
X177085714Y-105977142D01*
X177133333Y-106024761D01*
X177228571Y-106072380D01*
X177419047Y-106072380D01*
X177514285Y-106024761D01*
X177561904Y-105977142D01*
X177609523Y-105881904D01*
X177609523Y-105072380D01*
X178514285Y-105405714D02*
X178514285Y-106072380D01*
X178276190Y-105024761D02*
X178038095Y-105739047D01*
X178657142Y-105739047D01*
X161798095Y-84542380D02*
X161798095Y-85351904D01*
X161845714Y-85447142D01*
X161893333Y-85494761D01*
X161988571Y-85542380D01*
X162179047Y-85542380D01*
X162274285Y-85494761D01*
X162321904Y-85447142D01*
X162369523Y-85351904D01*
X162369523Y-84542380D01*
X163321904Y-84542380D02*
X162845714Y-84542380D01*
X162798095Y-85018571D01*
X162845714Y-84970952D01*
X162940952Y-84923333D01*
X163179047Y-84923333D01*
X163274285Y-84970952D01*
X163321904Y-85018571D01*
X163369523Y-85113809D01*
X163369523Y-85351904D01*
X163321904Y-85447142D01*
X163274285Y-85494761D01*
X163179047Y-85542380D01*
X162940952Y-85542380D01*
X162845714Y-85494761D01*
X162798095Y-85447142D01*
X188468095Y-84542380D02*
X188468095Y-85351904D01*
X188515714Y-85447142D01*
X188563333Y-85494761D01*
X188658571Y-85542380D01*
X188849047Y-85542380D01*
X188944285Y-85494761D01*
X188991904Y-85447142D01*
X189039523Y-85351904D01*
X189039523Y-84542380D01*
X189944285Y-84542380D02*
X189753809Y-84542380D01*
X189658571Y-84590000D01*
X189610952Y-84637619D01*
X189515714Y-84780476D01*
X189468095Y-84970952D01*
X189468095Y-85351904D01*
X189515714Y-85447142D01*
X189563333Y-85494761D01*
X189658571Y-85542380D01*
X189849047Y-85542380D01*
X189944285Y-85494761D01*
X189991904Y-85447142D01*
X190039523Y-85351904D01*
X190039523Y-85113809D01*
X189991904Y-85018571D01*
X189944285Y-84970952D01*
X189849047Y-84923333D01*
X189658571Y-84923333D01*
X189563333Y-84970952D01*
X189515714Y-85018571D01*
X189468095Y-85113809D01*
X199263095Y-111212380D02*
X199263095Y-112021904D01*
X199310714Y-112117142D01*
X199358333Y-112164761D01*
X199453571Y-112212380D01*
X199644047Y-112212380D01*
X199739285Y-112164761D01*
X199786904Y-112117142D01*
X199834523Y-112021904D01*
X199834523Y-111212380D01*
X200215476Y-111212380D02*
X200882142Y-111212380D01*
X200453571Y-112212380D01*
X94154666Y-74382380D02*
X94154666Y-75096666D01*
X94107047Y-75239523D01*
X94011809Y-75334761D01*
X93868952Y-75382380D01*
X93773714Y-75382380D01*
X95154666Y-75382380D02*
X94583238Y-75382380D01*
X94868952Y-75382380D02*
X94868952Y-74382380D01*
X94773714Y-74525238D01*
X94678476Y-74620476D01*
X94583238Y-74668095D01*
X91106666Y-91932380D02*
X91106666Y-92646666D01*
X91059047Y-92789523D01*
X90963809Y-92884761D01*
X90820952Y-92932380D01*
X90725714Y-92932380D01*
X91487619Y-91932380D02*
X92154285Y-91932380D01*
X91725714Y-92932380D01*
X118006904Y-127872380D02*
X118006904Y-126872380D01*
X118245000Y-126872380D01*
X118387857Y-126920000D01*
X118483095Y-127015238D01*
X118530714Y-127110476D01*
X118578333Y-127300952D01*
X118578333Y-127443809D01*
X118530714Y-127634285D01*
X118483095Y-127729523D01*
X118387857Y-127824761D01*
X118245000Y-127872380D01*
X118006904Y-127872380D01*
X119530714Y-127872380D02*
X118959285Y-127872380D01*
X119245000Y-127872380D02*
X119245000Y-126872380D01*
X119149761Y-127015238D01*
X119054523Y-127110476D01*
X118959285Y-127158095D01*
X126833333Y-120467380D02*
X126500000Y-119991190D01*
X126261904Y-120467380D02*
X126261904Y-119467380D01*
X126642857Y-119467380D01*
X126738095Y-119515000D01*
X126785714Y-119562619D01*
X126833333Y-119657857D01*
X126833333Y-119800714D01*
X126785714Y-119895952D01*
X126738095Y-119943571D01*
X126642857Y-119991190D01*
X126261904Y-119991190D01*
X127785714Y-120467380D02*
X127214285Y-120467380D01*
X127500000Y-120467380D02*
X127500000Y-119467380D01*
X127404761Y-119610238D01*
X127309523Y-119705476D01*
X127214285Y-119753095D01*
X111974333Y-105989380D02*
X111641000Y-105513190D01*
X111402904Y-105989380D02*
X111402904Y-104989380D01*
X111783857Y-104989380D01*
X111879095Y-105037000D01*
X111926714Y-105084619D01*
X111974333Y-105179857D01*
X111974333Y-105322714D01*
X111926714Y-105417952D01*
X111879095Y-105465571D01*
X111783857Y-105513190D01*
X111402904Y-105513190D01*
X112307666Y-104989380D02*
X112926714Y-104989380D01*
X112593380Y-105370333D01*
X112736238Y-105370333D01*
X112831476Y-105417952D01*
X112879095Y-105465571D01*
X112926714Y-105560809D01*
X112926714Y-105798904D01*
X112879095Y-105894142D01*
X112831476Y-105941761D01*
X112736238Y-105989380D01*
X112450523Y-105989380D01*
X112355285Y-105941761D01*
X112307666Y-105894142D01*
X164211095Y-107485380D02*
X164211095Y-108294904D01*
X164258714Y-108390142D01*
X164306333Y-108437761D01*
X164401571Y-108485380D01*
X164592047Y-108485380D01*
X164687285Y-108437761D01*
X164734904Y-108390142D01*
X164782523Y-108294904D01*
X164782523Y-107485380D01*
X165401571Y-107913952D02*
X165306333Y-107866333D01*
X165258714Y-107818714D01*
X165211095Y-107723476D01*
X165211095Y-107675857D01*
X165258714Y-107580619D01*
X165306333Y-107533000D01*
X165401571Y-107485380D01*
X165592047Y-107485380D01*
X165687285Y-107533000D01*
X165734904Y-107580619D01*
X165782523Y-107675857D01*
X165782523Y-107723476D01*
X165734904Y-107818714D01*
X165687285Y-107866333D01*
X165592047Y-107913952D01*
X165401571Y-107913952D01*
X165306333Y-107961571D01*
X165258714Y-108009190D01*
X165211095Y-108104428D01*
X165211095Y-108294904D01*
X165258714Y-108390142D01*
X165306333Y-108437761D01*
X165401571Y-108485380D01*
X165592047Y-108485380D01*
X165687285Y-108437761D01*
X165734904Y-108390142D01*
X165782523Y-108294904D01*
X165782523Y-108104428D01*
X165734904Y-108009190D01*
X165687285Y-107961571D01*
X165592047Y-107913952D01*
M02*
