M48
; DRILL file {KiCad (5.1.4)-1} date 2019-12-24 11:42:01
; FORMAT={-:-/ absolute / inch / decimal}
; #@! TF.CreationDate,2019-12-24T11:42:01+01:00
; #@! TF.GenerationSoftware,Kicad,Pcbnew,(5.1.4)-1
; #@! TF.FileFunction,Plated,1,2,PTH
FMAT,2
INCH
T1C0.0118
T2C0.0157
T3C0.0315
T4C0.0354
T5C0.0362
T6C0.0394
T7C0.0917
%
G90
G05
T1
X3.55Y-5.025
X3.575Y-2.675
X3.6Y-3.625
X3.675Y-3.05
X3.675Y-3.775
X3.725Y-3.175
X3.725Y-3.4
X3.75Y-3.0
X3.75Y-3.15
X3.775Y-4.3325
X3.85Y-3.125
X3.85Y-4.65
X3.93Y-4.4725
X3.95Y-2.895
X3.95Y-4.35
X4.0Y-4.375
X4.0Y-4.55
X4.0325Y-4.8575
X4.05Y-2.925
X4.095Y-5.025
X4.2Y-2.895
X4.2Y-3.215
X4.2Y-3.815
X4.25Y-2.975
X4.35Y-2.95
X4.35Y-5.0
X4.4Y-3.125
X4.4Y-3.8
X4.475Y-4.195
X4.475Y-4.325
X4.5Y-3.175
X4.5Y-3.7
X4.575Y-2.8
X4.645Y-3.42
X4.645Y-4.01
X4.7Y-2.81
X4.7Y-3.825
X4.75Y-3.6
X4.775Y-4.11
X4.8Y-2.95
X4.9Y-3.65
X4.9Y-4.05
X4.91Y-4.335
X5.0Y-2.975
X5.0Y-3.75
X5.075Y-2.95
X5.1Y-2.85
X5.1Y-3.55
X5.1443Y-3.3693
X5.2Y-3.45
X5.25Y-3.175
X5.27Y-4.72
X5.3Y-3.0
X5.35Y-2.85
X5.4Y-3.05
X5.4443Y-3.0057
X5.5Y-3.1
X5.5443Y-2.9057
X5.55Y-4.705
X5.585Y-4.345
X5.6Y-3.125
X5.6443Y-2.95
X5.645Y-4.125
X5.715Y-4.1
X5.73Y-4.89
X5.7443Y-3.0496
X5.8Y-3.5
X5.855Y-4.01
X5.95Y-2.8
X5.95Y-3.2
X5.95Y-3.275
X6.005Y-4.125
X6.05Y-3.125
X6.065Y-4.165
X6.15Y-3.075
X6.16Y-4.095
X6.225Y-3.975
X6.25Y-3.025
X6.3Y-3.5
X6.325Y-4.025
X6.345Y-4.205
X6.4Y-2.85
X6.47Y-4.4
X6.745Y-4.6
X6.785Y-4.025
X6.8Y-3.4
X6.88Y-3.6
X6.95Y-3.15
X6.95Y-3.55
X6.975Y-3.45
X7.0Y-3.3
X7.0Y-4.85
X7.055Y-4.095
X7.175Y-2.85
X7.2Y-3.025
X7.21Y-4.065
X7.245Y-4.795
X7.25Y-2.8
X7.25Y-2.85
X7.25Y-4.125
X7.285Y-4.41
X7.285Y-4.665
X7.305Y-4.1252
X7.325Y-3.2
X7.325Y-3.25
X7.325Y-3.3
X7.3625Y-3.99
X7.375Y-2.975
X7.375Y-3.4
X7.4Y-3.125
X7.4Y-3.3
X7.4Y-3.55
X7.405Y-4.305
X7.45Y-3.35
X7.4557Y-3.6557
X7.5Y-4.2
X7.565Y-4.245
X7.6Y-4.4
X7.625Y-3.75
X7.65Y-4.95
X7.6557Y-3.8557
X7.7Y-4.025
X7.7Y-4.275
X7.75Y-3.95
X7.8Y-2.725
X7.8Y-4.3
X7.8Y-4.35
X7.85Y-2.925
X7.85Y-4.425
X7.9Y-4.375
X7.925Y-3.9
X7.975Y-3.8
X8.0Y-4.425
X8.025Y-3.7
X8.05Y-2.95
X8.1Y-4.1
X8.205Y-4.135
X8.25Y-4.2
X8.3Y-4.025
X8.3Y-4.175
X8.3Y-4.3
X8.35Y-2.8
X8.35Y-3.65
X8.35Y-4.4
X8.365Y-4.635
X8.375Y-3.75
X8.375Y-4.25
X8.4Y-3.8
X8.4Y-4.35
X8.4Y-5.0
X8.425Y-4.025
X8.45Y-3.5
X8.45Y-4.375
X8.455Y-4.89
X8.5Y-4.425
X8.525Y-4.85
T2
X3.8Y-3.05
X3.8Y-3.35
X3.8Y-3.72
X3.8Y-4.25
X4.25Y-4.25
X4.555Y-4.25
X4.625Y-4.475
X4.65Y-2.7
X4.65Y-3.05
X5.1Y-4.25
X5.4Y-4.16
X6.725Y-4.35
X6.925Y-2.7
X7.0Y-4.35
X7.0Y-4.75
X8.3Y-4.7
T3
X7.3016Y-4.2
X7.4Y-4.2
X4.255Y-4.065
X4.555Y-4.065
X4.6016Y-3.15
X4.7Y-3.15
X7.4Y-4.5
X7.4Y-4.8
X7.5Y-4.5
X7.5Y-4.8
X7.6Y-4.5
X7.6Y-4.8
X7.7Y-4.5
X7.7Y-4.8
X7.8Y-4.5
X7.8Y-4.8
X7.9Y-4.5
X7.9Y-4.8
X8.0Y-4.5
X8.0Y-4.8
X8.1Y-4.5
X8.1Y-4.8
X8.2Y-4.5
X8.2Y-4.8
X8.3Y-4.5
X8.3Y-4.8
X4.9Y-4.625
X4.9Y-4.925
X6.5Y-2.7
X6.5Y-2.8
X6.5Y-2.9
X6.5Y-3.0
X6.5Y-3.1
X6.5Y-3.2
X6.5Y-3.3
X6.5Y-3.4
X6.5Y-3.5
X6.5Y-3.6
X6.5Y-3.7
X6.5Y-3.8
X6.5Y-3.9
X6.5Y-4.0
X7.1Y-2.7
X7.1Y-2.8
X7.1Y-2.9
X7.1Y-3.0
X7.1Y-3.1
X7.1Y-3.2
X7.1Y-3.3
X7.1Y-3.4
X7.1Y-3.5
X7.1Y-3.6
X7.1Y-3.7
X7.1Y-3.8
X7.1Y-3.9
X7.1Y-4.0
X4.85Y-3.15
X4.9484Y-3.15
X8.3016Y-2.7
X8.4Y-2.7
X5.36Y-4.345
X5.36Y-4.445
X5.36Y-4.545
X5.36Y-4.645
X5.36Y-4.745
X5.36Y-4.845
X5.36Y-4.945
X5.66Y-4.345
X5.66Y-4.445
X5.66Y-4.545
X5.66Y-4.645
X5.66Y-4.745
X5.66Y-4.845
X5.66Y-4.945
X5.765Y-4.1516
X5.765Y-4.25
X6.345Y-4.345
X6.345Y-4.445
X6.345Y-4.545
X6.345Y-4.645
X6.345Y-4.745
X6.345Y-4.845
X6.345Y-4.945
X6.645Y-4.345
X6.645Y-4.445
X6.645Y-4.545
X6.645Y-4.645
X6.645Y-4.745
X6.645Y-4.845
X6.645Y-4.945
X7.2516Y-2.7
X7.35Y-2.7
X5.1Y-4.625
X5.1Y-4.925
X5.89Y-4.345
X5.89Y-4.445
X5.89Y-4.545
X5.89Y-4.645
X5.89Y-4.745
X5.89Y-4.845
X5.89Y-4.945
X6.19Y-4.345
X6.19Y-4.445
X6.19Y-4.545
X6.19Y-4.645
X6.19Y-4.745
X6.19Y-4.845
X6.19Y-4.945
X3.9Y-3.3
X3.9Y-3.9
X4.0Y-3.3
X4.0Y-3.9
X4.1Y-3.3
X4.1Y-3.9
X4.2Y-3.3
X4.2Y-3.9
X4.3Y-3.3
X4.3Y-3.9
X4.4Y-3.3
X4.4Y-3.9
X4.5Y-3.3
X4.5Y-3.9
X4.6Y-3.3
X4.6Y-3.9
X4.7Y-3.3
X4.7Y-3.9
X4.8Y-3.3
X4.8Y-3.9
X4.9Y-3.3
X4.9Y-3.9
X5.0Y-3.3
X5.0Y-3.9
X5.1Y-3.3
X5.1Y-3.9
X5.2Y-3.3
X5.2Y-3.9
X5.3Y-3.3
X5.3Y-3.9
X5.4Y-3.3
X5.4Y-3.9
X5.5Y-3.3
X5.5Y-3.9
X5.6Y-3.3
X5.6Y-3.9
X5.7Y-3.3
X5.7Y-3.9
X5.8Y-3.3
X5.8Y-3.9
X8.2Y-4.95
X8.2984Y-4.95
X6.85Y-4.25
X6.85Y-4.35
X6.85Y-4.45
X6.85Y-4.55
X6.85Y-4.65
X6.85Y-4.75
X6.85Y-4.85
X6.85Y-4.95
X7.15Y-4.25
X7.15Y-4.35
X7.15Y-4.45
X7.15Y-4.55
X7.15Y-4.65
X7.15Y-4.75
X7.15Y-4.85
X7.15Y-4.95
X7.55Y-2.7
X7.55Y-2.8
X7.55Y-2.9
X7.55Y-3.0
X7.55Y-3.1
X7.55Y-3.2
X7.55Y-3.3
X7.55Y-3.4
X7.55Y-3.5
X7.55Y-3.6
X7.55Y-3.7
X7.55Y-3.8
X7.55Y-3.9
X7.55Y-4.0
X8.15Y-2.7
X8.15Y-2.8
X8.15Y-2.9
X8.15Y-3.0
X8.15Y-3.1
X8.15Y-3.2
X8.15Y-3.3
X8.15Y-3.4
X8.15Y-3.5
X8.15Y-3.6
X8.15Y-3.7
X8.15Y-3.8
X8.15Y-3.9
X8.15Y-4.0
X4.725Y-4.475
X4.725Y-4.5537
T4
X4.625Y-4.9
X4.725Y-4.9
T5
X4.1516Y-4.475
X4.1516Y-4.5537
X4.25Y-4.475
X4.25Y-4.5537
T6
X3.6Y-3.05
X3.6Y-3.15
X3.6Y-3.25
X3.6Y-3.35
X3.6Y-3.45
X3.6Y-3.75
X3.6Y-3.85
X3.6Y-3.95
X3.6Y-4.05
X3.6Y-4.15
X3.6Y-4.35
X3.6Y-4.45
X3.6Y-4.55
X3.6Y-4.65
X3.6Y-4.75
X8.6Y-2.7
X8.6Y-2.8
X8.6Y-2.9
X8.6Y-3.0
X8.6Y-3.1
X8.6Y-3.2
X8.6Y-3.3
X8.6Y-3.4
X8.6Y-3.5
X8.6Y-3.6
X8.6Y-3.7
X8.6Y-3.8
X8.6Y-3.9
X8.6Y-4.0
X8.6Y-4.1
X8.6Y-4.2
X8.6Y-4.3
X8.6Y-4.4
X8.6Y-4.5
X8.6Y-4.6
X8.6Y-4.7
X8.6Y-4.8
X8.6Y-4.9
X8.6Y-5.0
X3.75Y-2.7
X3.85Y-2.7
X3.95Y-2.7
X4.05Y-2.7
X4.15Y-2.7
X4.25Y-2.7
X4.35Y-2.7
X4.45Y-2.7
X4.75Y-2.7
X4.85Y-2.7
X4.95Y-2.7
X5.05Y-2.7
X5.15Y-2.7
X5.25Y-2.7
X5.35Y-2.7
X5.45Y-2.7
X5.55Y-2.7
X5.65Y-2.7
X5.75Y-2.7
X5.85Y-2.7
X5.95Y-2.7
X6.05Y-2.7
X6.15Y-2.7
X6.25Y-2.7
T7
X3.9638Y-4.6604
X4.4378Y-4.6604
T0
M30
